<svg id="umass-seal-footer" xmlns="http://www.w3.org/2000/svg" viewBox="0 0 73.55 73.55" role="img">
  <title id="umass-seal-footerTitle">Seal of The University of Massachusetts Amherst - 1863</title>
  <path d="m36.77,0C16.5,0,0,16.5,0,36.77s16.5,36.77,36.77,36.77,36.77-16.5,36.77-36.77S57.05,0,36.77,0Zm0,72.47C17.09,72.47,1.08,56.46,1.08,36.77S17.09,1.08,36.77,1.08s35.7,16.01,35.7,35.7-16.01,35.7-35.7,35.7Z" fill="#fff" stroke-width="0"></path><path d="m36.77,2.38C17.81,2.38,2.38,17.81,2.38,36.77s15.43,34.4,34.4,34.4,34.4-15.43,34.4-34.4S55.74,2.38,36.77,2.38Zm0,68.43c-18.77,0-34.04-15.27-34.04-34.04S18.01,2.74,36.77,2.74s34.04,15.27,34.04,34.04-15.27,34.04-34.04,34.04Z" fill="#fff" stroke-width="0"></path><path d="m40.14,11.76c-.1-.16-.28-.28-.49-.31-.37-.04-.69.22-.73.59-.04.37.22.69.59.73.2.02.39-.05.53-.18,12.09,1.61,21.14,11.91,21.14,24.18,0,13.46-10.95,24.4-24.4,24.4s-24.4-10.95-24.4-24.4c0-12.13,8.93-22.41,20.86-24.14.14.13.33.2.53.17.36-.04.63-.38.58-.74-.04-.36-.38-.63-.74-.58-.21.03-.38.15-.48.31-12.35,1.79-21.59,12.43-21.59,24.98,0,13.92,11.33,25.25,25.25,25.25s25.25-11.33,25.25-25.25c0-12.7-9.37-23.35-21.88-25.02Z" fill="#fff" stroke-width="0"></path><path d="m56.83,18.41c-4.49-4.9-10.56-7.96-17.13-8.67-.05-.14-.18-.24-.33-.26-.22-.02-.42.14-.45.36-.02.22.14.42.36.45.16.02.3-.06.38-.19,6.48.7,12.47,3.72,16.89,8.55,4.54,4.96,7.04,11.39,7.04,18.12,0,14.8-12.04,26.84-26.84,26.84s-26.84-12.04-26.84-26.84c0-13.67,10.15-25.05,23.66-26.64.08.13.23.2.38.19.22-.03.38-.23.36-.45-.03-.22-.23-.38-.45-.36-.16.02-.28.13-.33.26-13.7,1.61-23.98,13.15-23.98,27,0,15,12.2,27.2,27.2,27.2s27.2-12.2,27.2-27.2c0-6.82-2.54-13.34-7.14-18.37Z" fill="#fff" stroke-width="0"></path><path d="m32.08,68.34l.58.19-.03.16-1.78-.29.03-.16h.64s.37-2.28.37-2.28l-.68-.11.03-.16,1.26-.05h.02s-.44,2.7-.44,2.7Z" fill="#fff" stroke-width="0"></path><path d="m34.53,66.93l-.21-.17c-.27-.22-.47-.5-.45-.9.03-.55.6-1.02,1.3-.97.6.04,1.01.47.98.93-.03.49-.46.75-.88.99l.15.12c.43.33.71.64.68,1.1-.04.65-.71,1.02-1.33.98-.71-.04-1.24-.48-1.21-1.06.03-.54.51-.77.96-1.02Zm.11.09c-.37.27-.5.54-.52.87-.03.46.24.91.73.94.48.03.71-.28.73-.59.02-.37-.31-.72-.69-1.03l-.24-.19Zm.23-.54l.28.22c.31-.26.46-.52.48-.83.03-.55-.28-.82-.59-.84-.32-.02-.63.18-.66.6-.02.34.16.58.49.84Z" fill="#fff" stroke-width="0"></path><path d="m37.74,66.85c.22-.24.55-.39.81-.4.71-.04,1.19.44,1.22,1.13.03.68-.49,1.4-1.31,1.44-.73.04-1.39-.44-1.43-1.36-.07-1.43,1.37-2.52,2.76-2.99l.05.15c-.86.42-1.8,1.14-2.11,2.02Zm-.05.19c-.04.16-.05.32-.05.49.05.93.47,1.32.92,1.3.39-.02.65-.35.62-.98-.04-.7-.42-1.11-.91-1.09-.21.01-.44.12-.59.28Z" fill="#fff" stroke-width="0"></path><path d="m40.71,69.2c-.02-.16.08-.31.22-.36.11.1.36.34.52.44.56-.11.82-.52.74-1.03-.08-.53-.57-.83-1.26-.7l-.04-.25.19-.08c.49-.32.71-.71.65-1.06-.06-.36-.33-.53-.65-.48-.27.04-.42.23-.54.47l-.14-.05c.1-.42.39-.81.87-.88.54-.08.9.21.97.64.07.47-.24.81-.56,1.08l-.16.14h0c.5-.01,1.06.24,1.15.85.12.78-.68,1.48-1.4,1.59-.27.04-.54-.08-.58-.32Z" fill="#fff" stroke-width="0"></path><path d="m48.91,65.25c-.25.17-.49.16-.61.17-.14,0-.46,0-.69-.06-.02-.08.01-.19.09-.28.15-.17.45-.09.68-.06.17.02.45.01.58-.13.07-.08.13-.21-.01-.34-.1-.1-.21-.08-.26-.04-.03.01-.04,0-.05-.02-.02-.02-.06-.13.03-.22.09-.1.24-.08.33,0,.13.12.15.35.15.45,0,.06,0,.09.02.15.08.26-.1.6-.28.8-.2.21-.44.37-.73.43-.26.05-.42,0-.54-.11-.1-.09-.11-.19-.09-.26-.24-.04-.53-.08-.74.15-.22.24-.15.46.02.62.27.25.63.15.73.04.02-.03.03,0,.03.01-.01.1-.05.18-.1.24-.17.18-.5.19-.72-.01-.32-.3-.25-.82-.01-1.08.16-.17.36-.23.68-.2.2.02.56.12.89.06.3-.05.47-.17.56-.27l.05-.06h-.02Z" fill="#fff" stroke-width="0"></path><path d="m24.68,65.29l.06.05c.11.08.29.18.6.18.33,0,.67-.15.87-.2.31-.08.52-.06.7.09.28.22.42.72.16,1.07-.19.23-.51.27-.71.12-.07-.05-.11-.12-.14-.22,0-.02,0-.04.03-.02.11.09.49.14.72-.16.14-.18.17-.42-.08-.62-.25-.2-.53-.11-.76-.04.03.07.04.16-.05.27-.1.12-.25.2-.51.19-.3-.01-.56-.13-.79-.31-.21-.17-.44-.48-.4-.75,0-.06,0-.09,0-.16,0-.1-.03-.33.08-.47.08-.1.22-.14.33-.06.1.08.07.19.06.22-.01.03-.02.03-.05.03-.05-.02-.16-.03-.25.08-.12.15-.04.27.04.34.16.12.43.09.6.04.23-.06.51-.18.68-.04.09.07.13.18.13.26-.22.1-.53.15-.67.17-.12,0-.36.06-.63-.08v.02Z" fill="#fff" stroke-width="0"></path><path d="m7.89,43.84l-2.11.41-.04.48-.13.03-.31-1.58.13-.03.22.47,2-.39c.78-.15,1.36-.51,1.21-1.29-.15-.76-.68-1.01-1.48-.9l-2.1.42-.05.7-.13.03-.27-1.4.13-.03.23.42,2.07-.4c1.1-.21,1.76.35,1.93,1.23.22,1.11-.35,1.64-1.31,1.83Z" fill="#fff" stroke-width="0"></path><path d="m8.58,36.03l-3.26,2.68,3-.09.12-.53h.14s.03,1.2.03,1.2h-.14s-.14-.42-.14-.42l-3.25.09c-.11.1-.19.27-.22.4l-.03.1h-.13s-.03-1.02-.03-1.02l2.81-2.3-2.6.08-.12.52h-.14s-.03-1.19-.03-1.19h.14s.14.42.14.42l2.98-.09.73-.03v.16Z" fill="#fff" stroke-width="0"></path><path d="m8.45,34.61l-.06-.46-3.4-.33-.17.44h-.14s.15-1.54.15-1.54h.14s.08.48.08.48l3.4.33.15-.44h.14s-.15,1.54-.15,1.54h-.14Z" fill="#fff" stroke-width="0"></path><path d="m5.25,31.41l-.18.26-.13-.03.3-1.4.13.03.02.47,3.18-.45-2.66-1.68-.28.57-.14-.03.25-1.18.13.03.08.34,3.32,2.17-.06.27-3.96.63Z" fill="#fff" stroke-width="0"></path><path d="m8.32,26.56l1.47.55c.11-.04.18-.1.24-.23l.36-.98-.71-.9.06-.15,1,.69-1,2.7-.13-.05.05-.47-3.19-1.18-.28.38-.13-.05.87-2.35.13-.41,1,.37-.06.15h-.89s-.48,1.3-.48,1.3l1.49.55.27-.74-.46-.37.05-.13,1.21.45-.06.15-.55-.02-.27.74Z" fill="#fff" stroke-width="0"></path><path d="m11.05,24.48l.12-.45-3-1.64-.32.34-.12-.07.63-1.19c.54-1.01,1.13-1.3,1.65-1.01.45.24.54.72.43,1.26h.01s2.07-.16,2.07-.16l.29-.29.12.07-.46.85-1.72.12c-.25.02-.43.03-.43.03l-.22.4,1.37.75.32-.34.12.07-.74,1.35-.12-.07Zm-1.12-1.84l.23-.42c.19-.46.06-.92-.34-1.14-.5-.27-1.08-.02-1.46.71l1.57.86Z" fill="#fff" stroke-width="0"></path><path d="m12.37,20.07l.09-.12.94.25c.17-.05.4-.16.6-.43.29-.38.23-.83-.14-1.1-.25-.19-.53-.23-1.09.07l-.28.15c-.66.35-1,.39-1.42.08-.51-.38-.56-1.13-.09-1.76.24-.32.58-.5.76-.57l.75.51-.08.11-.82-.19c-.18.04-.34.11-.49.3-.27.36-.18.75.11.97.31.23.55.19,1.05-.07l.28-.15c.77-.41,1.13-.38,1.48-.12.61.45.55,1.35.12,1.92-.3.4-.65.58-.9.7l-.84-.56Z" fill="#fff" stroke-width="0"></path><path d="m15.37,17.95l.23-.41-2.51-2.31-.4.25-.1-.09,1.04-1.13.1.09-.22.42,2.51,2.31.39-.26.1.09-1.04,1.13-.1-.1Z" fill="#fff" stroke-width="0"></path><path d="m16.76,11.39l.26-.28.74.84-.12.1-.81-.45-.67.58,2.26,2.62.48-.27.09.1-1.3,1.12-.09-.1.34-.44-2.26-2.62-.67.58.33.87-.12.1-.72-.85.31-.22,1.95-1.68Z" fill="#fff" stroke-width="0"></path><path d="m21,11.08l.81,1.28.45-.16.08.12-1.32.84-.08-.12.34-.34-.74-1.16-2.11-1.12-.31.09-.07-.11,1.27-.8.07.11-.34.35,1.72.97-.06-1.99-.56.18-.07-.11,1.01-.64.07.11-.21.28.03,2.23Z" fill="#fff" stroke-width="0"></path><path d="m28.24,7.47c.48,1.3-.15,2.38-1.15,2.75-1.01.37-2.18-.07-2.62-1.25-.44-1.2.19-2.29,1.18-2.65,1.22-.45,2.25.25,2.59,1.16Zm-.56.43c-.35-.95-1.26-1.67-2.03-1.38-.83.3-.9,1.24-.59,2.09.31.85,1.17,1.74,2.06,1.41.83-.3.88-1.28.57-2.12Z" fill="#fff" stroke-width="0"></path><path d="m30.44,7.12l.33,1.63.61-.04.03.16-1.65.33-.03-.14.42-.19-.67-3.34-.47-.04-.03-.13,2.43-.49.44-.11.21,1.04-.16.03-.47-.76-1.35.27.32,1.57.77-.15.09-.59.13-.03.26,1.28-.14.03-.3-.48-.77.15Z" fill="#fff" stroke-width="0"></path><path d="m34.86,8.19l.46-.1.2-3.39-.45-.16v-.14s1.17.02,1.17.02l1.14,2.84,1.13-2.73.03-.08,1.12.02v.14s-.46.11-.46.11l.07,3.42.46.12v.14s-1.66-.03-1.66-.03v-.14s.58-.1.58-.1l-.04-3.28-1.19,2.89-.18.44h-.11s-.16-.45-.16-.45l-1.21-2.92-.17,3.25.65.14v.14s-1.37-.02-1.37-.02v-.14Z" fill="#fff" stroke-width="0"></path><path d="m40.23,8.37l.45-.03,2.04-3.37h.19s.23,0,.23,0l.64,3.99.4.19-.03.13-1.54-.3.03-.13.48-.02-.18-1.17-1.43-.28-.58.99.65.26-.03.13-1.37-.27.03-.13Zm1.46-1.25l1.23.24-.28-1.83h0s-.94,1.6-.94,1.6Z" fill="#fff" stroke-width="0"></path><path d="m45.19,8.36l.14.05.05.97c.1.15.28.33.59.44.45.16.86-.03,1.01-.46.1-.3.06-.58-.39-1.02l-.23-.22c-.53-.52-.68-.84-.51-1.33.21-.6.91-.87,1.65-.62.37.13.65.4.77.55l-.26.86-.13-.05-.07-.84c-.09-.16-.2-.3-.43-.37-.42-.15-.77.05-.89.39-.13.37-.02.58.38.98l.22.22c.63.61.7.96.56,1.37-.25.71-1.13.93-1.8.7-.47-.16-.75-.45-.94-.65l.28-.97Z" fill="#fff" stroke-width="0"></path><path d="m48.68,9.65l.13.07-.08.96c.08.16.23.37.53.51.43.21.86.08,1.06-.33.14-.28.13-.57-.26-1.07l-.2-.25c-.46-.58-.57-.92-.33-1.38.28-.57,1.01-.75,1.71-.4.35.18.59.48.69.65l-.37.82-.13-.06.04-.84c-.07-.17-.16-.32-.38-.43-.4-.2-.77-.05-.93.28-.17.35-.09.57.26,1.02l.19.25c.54.68.57,1.04.38,1.43-.34.68-1.24.78-1.87.46-.44-.22-.69-.54-.85-.76l.4-.93Z" fill="#fff" stroke-width="0"></path><path d="m51.02,11.99l.42.15,3.21-2.29.18.07.22.09-.98,3.92.3.33-.08.11-1.29-.88.08-.11.45.17.29-1.14-1.2-.82-.93.68.49.5-.08.11-1.15-.78.08-.11Zm1.83-.57l1.03.7.47-1.8h0s-1.5,1.09-1.5,1.09Z" fill="#fff" stroke-width="0"></path><path d="m55.84,13.3c.85-.92,2.25-.9,3.14-.07.4.37.58.73.7,1.07l-.66.76-.12-.11.31-.79c-.05-.29-.16-.6-.48-.89-.58-.54-1.53-.4-2.23.35-.91.98-.83,1.94-.24,2.49.31.29.64.33.84.34l.92-.34.12.11-.81.63c-.52-.15-.94-.34-1.36-.73-1.03-.95-.79-2.14-.15-2.83Z" fill="#fff" stroke-width="0"></path><path d="m59.5,19.65l.38.31,1.34-1.03-1.17-1.52-1.34,1.03.21.45-.11.08-.96-1.24.11-.08.37.29,2.7-2.08-.18-.44.11-.08.96,1.24-.11.08-.39-.31-1.21.93,1.17,1.52,1.21-.93-.2-.46.11-.08.95,1.23-.11.08-.38-.28-2.7,2.08.19.43-.11.08-.95-1.23.11-.08Z" fill="#fff" stroke-width="0"></path><path d="m62.28,21.27l1.9-1.01-.1-.47.12-.06.76,1.42-.12.06-.35-.39-1.8.96c-.7.37-1.16.88-.78,1.59.37.69.95.77,1.68.43l1.89-1.01-.16-.69.12-.06.67,1.26-.12.06-.35-.34-1.86.99c-.99.53-1.79.18-2.21-.61-.53-1-.14-1.68.72-2.13Z" fill="#fff" stroke-width="0"></path><path d="m64,25.38l.05.14-.72.64c-.06.17-.08.43.03.74.16.45.56.65,1,.49.29-.11.49-.32.55-.95l.03-.32c.07-.74.23-1.06.71-1.23.59-.22,1.25.16,1.52.89.13.37.09.76.05.95l-.84.34-.05-.13.61-.58c.06-.17.1-.34.02-.57-.15-.42-.53-.57-.86-.45-.37.13-.46.35-.52.92l-.03.31c-.08.87-.31,1.15-.72,1.3-.71.26-1.43-.29-1.67-.96-.17-.47-.13-.86-.09-1.14l.93-.39Z" fill="#fff" stroke-width="0"></path><path d="m66.1,29.67l-1.53.33c-.07.09-.1.18-.08.32l.22,1.02,1.08.38.03.16-1.22-.04-.61-2.81.13-.03.21.42,3.33-.72.03-.47.13-.03.53,2.45.11.42-1.04.23-.03-.16.75-.48-.29-1.35-1.55.34.17.77.59.07.03.14-1.26.27-.03-.16.48-.28-.17-.77Z" fill="#fff" stroke-width="0"></path><path d="m68.9,35.54l.07.37-1.11.09v-.15s.83-.38.83-.38l-.06-.89-3.46.25-.07.54h-.14s-.12-1.7-.12-1.7h.14s.15.53.15.53l3.46-.25-.06-.89-.89-.26v-.15s1.1-.07,1.1-.07v.38s.17,2.57.17,2.57Z" fill="#fff" stroke-width="0"></path><path d="m68.71,40.29v.38s-1.1-.07-1.1-.07v-.15s.9-.25.9-.25l.07-.89-3.46-.26-.15.53h-.14s.13-1.72.13-1.72h.14s.07.57.07.57l3.46.26.07-.89-.84-.38v-.15s1.12.09,1.12.09l-.07.37-.19,2.57Z" fill="#fff" stroke-width="0"></path><path d="m65.8,41.48l-.03.14-.95.17c-.14.12-.3.32-.36.64-.1.47.13.85.58.94.31.06.58,0,.97-.52l.19-.25c.45-.59.75-.78,1.26-.67.62.13.98.79.82,1.56-.08.39-.32.69-.45.83l-.89-.15.03-.14.83-.17c.14-.11.27-.24.32-.48.09-.44-.15-.76-.5-.84-.38-.08-.58.05-.93.5l-.19.25c-.53.7-.87.81-1.29.72-.74-.16-1.06-1-.91-1.7.1-.49.35-.8.53-1.01l1,.16Z" fill="#fff" stroke-width="0"></path><path d="m33.6,33.85c.27-.26.45-.6.52-.96.05-.23.03-.45-.06-.66-.03-.06-.07-.12-.13-.16-.17-.12-.4-.09-.58-.02-.42.17-.74.56-.91.98-.12.32-.22.85.1,1.09.17.13.64.11,1.04-.28Z" fill="#fff" stroke-width="0"></path><polygon points="36.77 45.25 36.77 45.25 36.77 45.25 36.77 45.25" fill="#fff" stroke-width="0"></polygon><path d="m40.07,51.98l.64.17v-.35l-.64-.2c0,.11,0,.27,0,.38Z" fill="#fff" stroke-width="0"></path><path d="m40.07,53.99l.64.19v-.39l-.64-.2c0,.12,0,.27,0,.4Z" fill="#fff" stroke-width="0"></path><path d="m40.3,49.79c-.83-.18-1.09.75-1.09,1.02,0,.13,0,.19,0,.33l.68.21c0-.24.04-.46.15-.56.1-.09.24-.12.36-.08.21.06.39.26.44.55.01.09,0,.33,0,.4l.66.21c0-.56-.09-1.16-.42-1.57-.21-.26-.5-.45-.79-.51Z" fill="#fff" stroke-width="0"></path><path d="m39.75,34.54c.51.34,1.23.39,1.6-.17.22-.33.24-.74.16-1.13-.05-.25-.15-.49-.26-.7-.31-.55-.87-1.11-1.54-1.12-.65-.01-1.03.56-1.03,1.16,0,.14.04.45.11.66.17.53.52,1,.97,1.31Zm-.53-1.88c0-.2.06-.43.23-.55.15-.1.34-.1.51-.04.4.18.71.56.87.96.02.06.05.14.07.21.08.31.09.69-.17.88-.08.06-.17.09-.26.09-.26-.01-.53-.19-.7-.35-.18-.17-.32-.39-.42-.62-.07-.18-.12-.38-.12-.58Z" fill="#fff" stroke-width="0"></path><polygon points="34.07 39.38 34.07 39.31 32.15 39.91 32.15 40.15 34.08 39.55 34.07 39.38" fill="#fff" stroke-width="0"></polygon><path d="m32.14,41.19l.83-.26v1.5l-.83.26c0,.08,0,.29,0,.36l.83-.28v1.51c.09-.03.23-.07.32-.1v-1.51s.84-.27.84-.27c0-.1,0-.25,0-.35l-.84.27v-1.5l.84-.27c0-.1,0-.26,0-.35l-1.98.63s0,.26,0,.35Z" fill="#fff" stroke-width="0"></path><path d="m40.24,37.91c-.11-.02-1.09-.16-1.12,1.48,0,.03-.03,1.45-.03,1.75,0,.41,0,.83,0,1.24,0,.37,0,.74,0,1.1,0,.16,0,.32,0,.48,0,.02.01.04.02.04,0,0,0,0,0,0,.03.01.06.02.09.03.06.02.12.04.19.06.19.06.38.11.56.17.22.07.43.13.65.2.18.05.86.26.86.26,0-.02,0-3.77,0-3.91,0,0,0-.45,0-.47.02-1.45-.54-2.32-1.19-2.44Zm-.94,1.47v-.07s1.92.6,1.92.6v.25s-1.93-.61-1.93-.61v-.17Zm1.11,3.4v1.51c-.09-.03-.23-.07-.32-.1v-1.51s-.84-.27-.84-.27c0-.1,0-.25,0-.35l.84.27v-1.5l-.84-.27c0-.1,0-.26,0-.35l1.98.63s0,.26,0,.35l-.83-.26v1.5l.83.26c0,.08,0,.29,0,.36l-.83-.28Z" fill="#fff" stroke-width="0"></path><path d="m37.63,34.49v.44s.61.2.61.2h0c.94.29,3.43,1.04,4.41,1.41v-.48s-4.77-1.49-4.77-1.49l-.25-.07Z" fill="#fff" stroke-width="0"></path><polygon points="42.66 37.7 38.24 36.3 38.24 36.49 42.66 37.88 42.66 37.7" fill="#fff" stroke-width="0"></polygon><path d="m36.32,15.7l-2.86,12.51h3.28v.35h-3.15c.66.8,3.15,3.82,3.15,3.82v-3.82h3.06s-2.99,3.73-3.06,3.82v.56h0s0,0,0,0h0s0,0,0,0c-.02-.03-3.46-4.14-3.46-4.14-.07.16-3.01,6.42-3.02,6.44h.01s-.19.42-.19.42l-.39.16s-.02,0-.03.01c-.02,0,.46.93.46.93,0,0,.02,7.55.02,9.76l.4-.12.18-.06,4.79-1.51.17-.05,1.06-.32h0v-11.52h0s3.26-4.07,3.32-4.15c.02.04,2.59,5.74,2.86,6.35l.21.46c.23.08.56.2.61.22l-.49,1.03.04,9.53h0s0,.03,0,.03l-.62-.19h0s-4.6-1.37-4.6-1.37l-1.31-.39v.18s-6.77,2.14-6.77,2.14v.57s6.08-1.9,6.78-2.11v-.6s6.89,2.06,6.9,2.07v-9.81l.65-1.25-.77-.32s-3.05-6.54-3.29-7.05c0,0-3.03-12.59-3.03-12.59h-.34v-.36c.25-.05.44-.22.44-.43s-.19-.38-.44-.43v-.67c.13-.05.22-.16.22-.29s-.09-.25-.22-.29v-.58l1.12.6v-1.1l-1.12-.61v-.31c.15-.05.26-.18.26-.34s-.11-.28-.26-.34v-.59l.28.16v-.21l-.28-.15v-.54h-.26s0,.4,0,.4l-.11-.06v.2l.11.06v.73c-.16.05-.27.18-.27.34s.11.29.27.34v1.99c-.13.05-.23.16-.23.3s.1.25.23.3v.67c-.25.05-.43.22-.43.43s.18.38.43.43v.36s-.31,0-.31,0Zm-4.28,16.84c.31-.55.87-1.11,1.54-1.12.65-.01,1.02.56,1.03,1.16,0,0,0,.02,0,.03-.01.76-.45,1.52-1.07,1.94-.75.5-1.31.28-1.6-.17-.36-.55-.19-1.3.11-1.83Zm-1.32,3.59c.06-.03,4.48-1.4,4.74-1.5v.36c-.46.15-4.69,1.48-4.74,1.5v-.35Zm3.56,7.88s0,0,0,0c-.03.01-.06.02-.09.03-.06.02-.12.04-.19.06-.19.06-.38.11-.56.17-.22.07-.43.13-.65.2-.18.05-.86.26-.86.26,0-.02,0-3.77,0-3.91,0,0,0-.45,0-.47-.02-1.45.54-2.32,1.19-2.44.11-.02,1.09-.16,1.12,1.48,0,.03.03,1.45.03,1.75,0,.41,0,.83,0,1.24,0,.37,0,.74,0,1.1,0,.16,0,.32,0,.48,0,.02-.01.04-.02.04Zm-3.56-6.21v-.19l4.75-1.49v.19s-4.75,1.49-4.75,1.49Zm6.27-21.64s2.79,11.75,2.85,12.04h-3.1v-12.04c.1,0,.16,0,.25,0Z" fill="#fff" stroke-width="0"></path><path d="m35.51,50.8l-1.12.31c.08-1.07-.46-1.74-1.35-1.52-1.29.33-1.45,1.62-1.41,2.29l-1.06.3h0s-.17.05-.17.05v.18s0,0,0,0l2.1-.59c0,.09,0,3.71,0,3.71l.95-.23c0-.2,0-3.53,0-3.75l2.14-.6h0s.18-.05.18-.05v-.17l-.28.07h0Zm-2.18,3.14l-.68.18v-.39l.68-.2c0,.12,0,.28,0,.4Zm0-2.03l-.68.2v-.3l.68-.2c0,.1,0,.21,0,.31Zm.83-.73l-.69.19c0-.53-.21-.7-.47-.65-.3.06-.49.44-.49.92l-.64.18c-.11-.75.37-1.8,1.19-1.99,1.21-.28,1.1,1.11,1.11,1.35Z" fill="#fff" stroke-width="0"></path><path d="m40.34,26.33c.09.39.4,1.65.4,1.65l3.18,6.89,1.16.46s-.88,1.76-.9,1.81c0,.02,0,9.57,0,9.69.02.01.16.05.16.05v1.51c.14-.04.28-.09.43-.13.57-.18,1.13-.35,1.7-.53l2.06-.64c.33-.1.66-.21,1-.31-.09.2-.18.39-.28.58-.13.04-.27.08-.4.12-.69.21-1.37.43-2.06.64-.6.19-1.19.37-1.79.56-.29.09-.58.18-.87.27,0,0,0,0-.01,0-.1.03-.26.08-.28.08v-.19h0v-.57h0s0-.09,0-.14l-.89-.25-.24-.07h0s-4.59-1.23-4.59-1.23v-.02s-.1,0-.1,0l-.27-.08h0s-.99-.25-.99-.25v12.42s-.02,0-.03,0c-.15-.05-.48-.17-.94-.36h0s-.18-.08-.18-.08h0c-1.2-.51-3.15-1.5-5.21-3.16h0s-.18-.14-.18-.14c-.37-.31-.75-.63-1.12-.98-.1-.09-.2-.19-.3-.29l.59.19v-.51l-1.3-.4c-.15-.16-.31-.33-.46-.5l1.75.51v-.48h0s-2.33-.71-2.33-.71c-.13-.16-.25-.31-.38-.47l2.71.82v-.5l-3.2-.97c-.11-.15-.22-.3-.32-.46l3.52,1.07v-.5l-3.94-1.19c-.09-.15-.19-.29-.28-.44l4.22,1.28v-.5l-4.58-1.39c-.08-.14-.16-.29-.24-.43l4.82,1.46v-.49s-5.16-1.58-5.19-1.59c-.11-.23-.2-.33-.3-.56.15.05,5.31,1.61,5.51,1.67v-.21s.05-.01.11-.03h0s6.43-1.83,6.43-1.83h0s.81-.24.81-.24v-.18l7.08,1.9c0-.26,0-.51,0-.67-.81-.24-7.08-2.05-7.08-2.05v.81l-7.31,2.1v-1.31s.11-.03.18-.06c0-.91,0-7.61,0-9.63l-.8-1.56.86-.34,3.22-6.81s.42-2.12.42-2.12h-12.62s0,8.05,0,8.05c0,10.47,4.32,16.7,7.95,20.09,3.93,3.67,7.82,4.84,7.98,4.89l.1.03.1-.03s.42-.13,1.01-.37c.06-.02.11-.05.18-.07,1.09-.46,2.84-1.32,4.76-2.75.06-.04.12-.09.18-.13.61-.46,1.24-.99,1.87-1.57,3.63-3.38,7.95-9.61,7.95-20.09v-8.05h-12.42Zm.53,29.26s-.93-.21-.96-.22c0,0,0-3.59,0-3.82l-1.89-.6v-.18s.97.3.97.3c0-.06,0-.14,0-.2,0-.02,0-.03,0-.05,0-.3.12-1.14.94-1.28.29-.05.58.03.83.17.28.16.51.4.68.67.19.3.27.64.29.99,0,.12.01.27.01.4,0,.01,0,.16,0,.17l1,.31v.18s-1.88-.59-1.88-.59c0,.1,0,3.74,0,3.74Zm3.47-1.63s-.09.08-.13.12l-.37.11v-.36l.93-.28c-.14.14-.28.28-.43.41Zm1.12-1.12l-1.62.49v-.36l2.07-.63c-.15.17-.3.33-.45.5Zm1.19-1.37c-.05.07-.11.14-.17.2l-2.64.8v-.36l3-.91c-.06.09-.13.18-.2.27Zm.65-.91l-3.46,1.05v-.36l3.76-1.14c-.09.15-.19.29-.3.45Zm.69-1.07l-4.15,1.26v-.36l4.41-1.33c-.08.14-.16.28-.26.44Zm.58-1.04l-4.73,1.43v-.36l4.94-1.5c-.05.1-.12.24-.21.42Z" fill="#fff" stroke-width="0"></path></svg>
